<svg width="321" height="227" xmlns="http://www.w3.org/2000/svg" xmlns:xlink="http://www.w3.org/1999/xlink" xml:space="preserve" overflow="hidden"><g><path d="M113.247 89.9373 121.757 89.9373 117.543 78.8343 117.462 78.8343 113.247 89.9373 113.247 89.9373ZM114.585 73.7691 120.663 73.7691 131.199 100.108 125.566 100.108 123.378 94.3135 111.668 94.3135 109.479 100.108 104.049 100.108 114.585 73.7691 114.585 73.7691ZM134.523 80.0906 139.224 80.0906 139.224 82.8052 139.305 82.8052C140.318 80.739 142.101 79.6043 144.411 79.6043 147.004 79.6043 148.949 80.739 150.164 83.0083 151.38 80.8201 153.609 79.6043 156.446 79.6043 161.389 79.6043 163.78 82.36 163.78 87.9923L163.78 100.108 158.756 100.108 158.756 88.8432C158.756 85.5608 157.62 83.9804 155.271 83.9804 152.92 83.9804 151.664 85.7229 151.664 89.0053L151.664 100.108 146.639 100.108 146.639 88.8432C146.639 85.5203 145.545 83.9804 143.154 83.9804 140.845 83.9804 139.549 85.7634 139.549 89.0053L139.549 100.108 134.523 100.108 134.523 80.0906 134.523 80.0906ZM173.02 91.7204C170.306 90.9099 167.672 89.4511 167.672 85.804 167.672 82.1168 170.751 79.6043 175.33 79.6043 178.411 79.6043 180.801 80.6985 182.139 82.7242L179.261 85.6014C178.248 84.3456 176.87 83.6562 175.371 83.6562 173.669 83.6562 172.615 84.4262 172.615 85.6419 172.615 87.2628 174.318 87.5465 176.79 88.3165 179.505 89.127 182.139 90.5852 182.139 94.2324 182.139 98.0012 178.896 100.595 174.115 100.595 170.994 100.595 168.483 99.5005 167.023 97.4338L169.9 94.5567C170.994 95.8534 172.454 96.5422 174.075 96.5422 176.02 96.5422 177.194 95.7319 177.194 94.3944 177.194 92.7741 175.492 92.4904 173.02 91.7204L173.02 91.7204ZM187.448 92.9357 187.448 84.2641 184.003 84.2641 184.003 80.0906 185.827 80.0906C187.488 80.0906 188.136 79.4423 188.136 77.7807L188.136 74.6605 192.431 74.6605 192.431 80.0906 197.294 80.0906 197.294 84.2641 192.431 84.2641 192.431 92.9357C192.431 94.8808 193.444 95.9749 195.308 95.9749 195.876 95.9749 196.564 95.8939 196.97 95.7723L196.97 99.9869C196.361 100.149 195.227 100.27 194.336 100.27 189.797 100.27 187.448 97.758 187.448 92.9357L187.448 92.9357ZM204.832 88.0733 214.922 88.0733C214.597 85.4393 212.571 83.6562 209.856 83.6562 207.141 83.6562 205.115 85.4393 204.832 88.0733L204.832 88.0733ZM199.766 90.0995C199.766 83.8994 203.94 79.6043 209.896 79.6043 215.853 79.6043 219.986 83.8588 219.986 89.9779 219.986 90.4642 219.906 91.2337 219.824 91.7604L204.832 91.7604C205.196 94.4756 207.507 96.2992 210.464 96.2992 212.652 96.2992 214.557 95.4887 215.813 94.0299L218.852 96.988C217.029 99.3384 213.867 100.595 210.22 100.595 204.062 100.595 199.766 96.2586 199.766 90.0995L199.766 90.0995ZM224.162 80.0906 228.902 80.0906 228.902 83.4136 228.983 83.4136C229.957 81.1443 231.739 79.9285 234.089 79.9285 234.698 79.9285 235.549 80.0096 235.873 80.1311L235.873 84.9124C235.305 84.7503 234.211 84.6288 233.4 84.6288 230.847 84.6288 229.185 86.5739 229.185 89.5726L229.185 100.108 224.162 100.108 224.162 80.0906 224.162 80.0906ZM253.501 90.0995C253.501 86.4928 251.271 84.102 247.989 84.102 244.666 84.102 242.439 86.5334 242.439 90.0995 242.439 93.6656 244.666 96.0966 247.989 96.0966 251.271 96.0966 253.501 93.7056 253.501 90.0995L253.501 90.0995ZM237.292 90.1805C237.292 83.9804 241.384 79.6043 247.178 79.6043 249.854 79.6043 252.041 80.7796 253.419 82.9268L253.501 82.9268 253.501 70.73 258.525 70.73 258.525 100.108 253.784 100.108 253.784 96.988 253.703 96.988C252.406 99.2573 249.974 100.595 247.178 100.595 241.384 100.595 237.292 96.2586 237.292 90.1805L237.292 90.1805ZM274.816 92.6525 274.816 91.5173 271.494 91.5583C268.86 91.5989 267.441 92.5304 267.441 94.2729 267.441 95.8128 268.656 96.9071 270.359 96.9071 272.993 96.9071 274.816 95.1644 274.816 92.6525L274.816 92.6525ZM262.377 94.3946C262.377 90.5452 265.577 88.2354 270.926 88.1948L274.816 88.1544 274.816 87.506C274.816 85.1556 273.316 83.9403 270.601 83.9403 268.818 83.9403 267.239 84.6288 266.145 85.885L263.105 82.9268C264.847 80.7796 267.643 79.6043 271.088 79.6043 276.437 79.6043 279.841 82.5221 279.841 87.1818L279.841 95.124C279.841 95.8534 280.165 96.1775 280.976 96.1775L281.34 96.1775 281.34 100.108 278.99 100.108C277.086 100.108 275.788 99.2169 275.384 97.758L275.303 97.758C274.046 99.5816 271.98 100.595 269.467 100.595 265.254 100.595 262.377 98.0821 262.377 94.3944L262.377 94.3944ZM285.272 80.0906 289.972 80.0906 289.972 82.8052 290.053 82.8052C291.066 80.739 292.849 79.6043 295.159 79.6043 297.752 79.6043 299.698 80.739 300.913 83.0083 302.128 80.8201 304.356 79.6043 307.194 79.6043 312.137 79.6043 314.529 82.36 314.529 87.9923L314.529 100.108 309.503 100.108 309.503 88.8432C309.503 85.5608 308.368 83.9804 306.018 83.9804 303.669 83.9804 302.411 85.7229 302.411 89.0053L302.411 100.108 297.387 100.108 297.387 88.8432C297.387 85.5203 296.293 83.9804 293.902 83.9804 291.593 83.9804 290.296 85.7634 290.296 89.0053L290.296 100.108 285.272 100.108 285.272 80.0906 285.272 80.0906ZM105.144 44.8196C105.144 36.8366 110.735 31.2043 118.637 31.2043 122.649 31.2043 126.012 32.5009 128.403 35.0943L124.918 38.417C123.419 36.7556 121.271 35.7833 118.718 35.7833 113.937 35.7833 110.614 39.5113 110.614 44.8196 110.614 50.2494 113.856 54.018 118.516 54.018 122.771 54.018 125.728 51.5867 125.728 48.0613L125.728 47.3723 119.367 47.3723 119.367 42.9555 131.077 42.9555 131.077 47.0483C131.077 53.7749 125.85 58.5158 118.354 58.5158 110.614 58.5158 105.144 52.8428 105.144 44.8196L105.144 44.8196ZM139.549 45.9948 149.637 45.9948C149.313 43.3608 147.288 41.5778 144.573 41.5778 141.857 41.5778 139.832 43.3608 139.549 45.9948L139.549 45.9948ZM134.483 48.0206C134.483 41.8209 138.657 37.5256 144.613 37.5256 150.569 37.5256 154.703 41.7803 154.703 47.8991 154.703 48.3853 154.622 49.1553 154.541 49.6821L139.549 49.6821C139.913 52.397 142.222 54.2204 145.181 54.2204 147.369 54.2204 149.273 53.4103 150.53 51.9514L153.569 54.9094C151.745 57.2597 148.584 58.5158 144.937 58.5158 138.778 58.5158 134.483 54.1801 134.483 48.0208L134.483 48.0208ZM158.878 38.0118 163.578 38.0118 163.578 40.7268 163.659 40.7268C164.672 38.6601 166.455 37.5256 168.766 37.5256 171.359 37.5256 173.304 38.6601 174.519 40.9294 175.735 38.7413 177.964 37.5256 180.8 37.5256 185.744 37.5256 188.134 40.2811 188.134 45.9135L188.134 58.0296 183.111 58.0296 183.111 46.7646C183.111 43.4823 181.975 41.9018 179.626 41.9018 177.275 41.9018 176.019 43.6444 176.019 46.9268L176.019 58.0296 170.994 58.0296 170.994 46.7646C170.994 43.442 169.9 41.9018 167.509 41.9018 165.199 41.9018 163.902 43.685 163.902 46.9268L163.902 58.0296 158.878 58.0296 158.878 38.0118 158.878 38.0118ZM197.172 45.9948 207.262 45.9948C206.938 43.3608 204.913 41.5778 202.197 41.5778 199.483 41.5778 197.457 43.3608 197.172 45.9948L197.172 45.9948ZM192.108 48.0206C192.108 41.8209 196.281 37.5256 202.238 37.5256 208.194 37.5256 212.328 41.7803 212.328 47.8991 212.328 48.3853 212.247 49.1553 212.166 49.6821L197.172 49.6821C197.538 52.397 199.847 54.2204 202.805 54.2204 204.994 54.2204 206.898 53.4103 208.154 51.9514L211.194 54.9094C209.37 57.2597 206.209 58.5158 202.562 58.5158 196.402 58.5158 192.108 54.1801 192.108 48.0208L192.108 48.0208ZM220.312 45.9948 230.402 45.9948C230.078 43.3608 228.051 41.5778 225.336 41.5778 222.621 41.5778 220.595 43.3608 220.312 45.9948L220.312 45.9948ZM215.246 48.0206C215.246 41.8209 219.42 37.5256 225.376 37.5256 231.333 37.5256 235.466 41.7803 235.466 47.8991 235.466 48.3853 235.386 49.1553 235.304 49.6821L220.312 49.6821C220.676 52.397 222.987 54.2204 225.944 54.2204 228.132 54.2204 230.038 53.4103 231.293 51.9514L234.332 54.9094C232.509 57.2597 229.348 58.5158 225.701 58.5158 219.542 58.5158 215.246 54.1801 215.246 48.0208L215.246 48.0208ZM239.642 38.0118 244.382 38.0118 244.382 40.7268 244.463 40.7268C245.395 38.7413 247.422 37.5256 249.772 37.5256 254.797 37.5256 257.389 40.4026 257.389 45.9135L257.389 58.0296 252.365 58.0296 252.365 46.8861C252.365 43.4823 251.15 41.9018 248.597 41.9018 246.044 41.9018 244.666 43.685 244.666 47.0078L244.666 58.0296 239.642 58.0296 239.642 38.0118 239.642 38.0118ZM263.834 50.8571 263.834 42.1856 260.389 42.1856 260.389 38.0118 262.213 38.0118C263.875 38.0118 264.523 37.3633 264.523 35.7021L264.523 32.5818 268.818 32.5818 268.818 38.0118 273.681 38.0118 273.681 42.1856 268.818 42.1856 268.818 50.8571C268.818 52.8021 269.832 53.8964 271.696 53.8964 272.262 53.8964 272.951 53.8154 273.356 53.6936L273.356 57.9081C272.749 58.0702 271.615 58.1917 270.722 58.1917 266.183 58.1917 263.834 55.6793 263.834 50.8571L263.834 50.8571ZM281.219 45.9948 291.308 45.9948C290.984 43.3608 288.959 41.5778 286.242 41.5778 283.529 41.5778 281.503 43.3608 281.219 45.9948L281.219 45.9948ZM276.154 48.0206C276.154 41.8209 280.327 37.5256 286.284 37.5256 292.24 37.5256 296.374 41.7803 296.374 47.8991 296.374 48.3853 296.293 49.1553 296.212 49.6821L281.219 49.6821C281.584 52.397 283.893 54.2204 286.851 54.2204 289.04 54.2204 290.944 53.4103 292.2 51.9514L295.24 54.9094C293.415 57.2597 290.255 58.5158 286.608 58.5158 280.448 58.5158 276.154 54.1801 276.154 48.0208L276.154 48.0208Z" fill="#EC0000" transform="matrix(1 0 0 1.00171 0.419473 0.333343)"/><path d="M26.3819 194.893 42.1689 179.106 26.3819 163.317 36.9077 152.791 52.6962 168.58 68.4848 152.791 79.0104 163.317 63.222 179.106 79.0104 194.893 68.4848 205.419 52.6962 189.632 36.9077 205.419 26.3819 194.893 26.3819 194.893Z" fill="#EC0000" transform="matrix(1 0 0 1.00171 0.419473 0.333343)"/><path d="M26.3835 68.4855 42.172 52.6964 26.3835 36.9069 36.9077 26.3822 52.6978 42.1707 68.4863 26.3822 79.012 36.9069 63.222 52.6964 79.012 68.4855 68.4863 79.0107 52.6978 63.2216 36.9108 79.0107 26.3835 68.4855 26.3835 68.4855Z" fill="#EC0000" transform="matrix(1 0 0 1.00171 0.419473 0.333343)"/><path d="M26.3835 131.744 42.172 115.956 26.3835 100.167 36.9097 89.6406 52.6978 105.43 68.4863 89.6406 79.012 100.167 63.224 115.956 79.012 131.744 68.4863 142.269 52.6978 126.482 36.9097 142.269 26.3835 131.744 26.3835 131.744Z" fill="#EC0000" transform="matrix(1 0 0 1.00171 0.419473 0.333343)"/></g></svg>